%TF.GenerationSoftware,KiCad,Pcbnew,(5.1.6)-1*%
%TF.CreationDate,2021-03-06T11:00:20-06:00*%
%TF.ProjectId,tsl2591_smaller,74736c32-3539-4315-9f73-6d616c6c6572,rev?*%
%TF.SameCoordinates,Original*%
%TF.FileFunction,Legend,Bot*%
%TF.FilePolarity,Positive*%
%FSLAX46Y46*%
G04 Gerber Fmt 4.6, Leading zero omitted, Abs format (unit mm)*
G04 Created by KiCad (PCBNEW (5.1.6)-1) date 2021-03-06 11:00:20*
%MOMM*%
%LPD*%
G01*
G04 APERTURE LIST*
%ADD10C,0.120000*%
%ADD11C,0.150000*%
G04 APERTURE END LIST*
D10*
%TO.C,Q2*%
X181040000Y-89755000D02*
X182500000Y-89755000D01*
X181040000Y-86595000D02*
X183200000Y-86595000D01*
X181040000Y-86595000D02*
X181040000Y-87525000D01*
X181040000Y-89755000D02*
X181040000Y-88825000D01*
%TO.C,Q1*%
X181115000Y-85055000D02*
X182575000Y-85055000D01*
X181115000Y-81895000D02*
X183275000Y-81895000D01*
X181115000Y-81895000D02*
X181115000Y-82825000D01*
X181115000Y-85055000D02*
X181115000Y-84125000D01*
%TO.C,J1*%
X185600000Y-82500000D02*
X185600000Y-87700000D01*
X190800000Y-82500000D02*
X190800000Y-87700000D01*
X186170000Y-81060000D02*
X186170000Y-82500000D01*
X185600000Y-82500000D02*
X186170000Y-82500000D01*
X185600000Y-87700000D02*
X186170000Y-87700000D01*
X190230000Y-82500000D02*
X190800000Y-82500000D01*
X190230000Y-87700000D02*
X190800000Y-87700000D01*
X187690000Y-82500000D02*
X188710000Y-82500000D01*
X187690000Y-87700000D02*
X188710000Y-87700000D01*
%TO.C,Q2*%
D11*
X181895238Y-86222619D02*
X181990476Y-86175000D01*
X182085714Y-86079761D01*
X182228571Y-85936904D01*
X182323809Y-85889285D01*
X182419047Y-85889285D01*
X182371428Y-86127380D02*
X182466666Y-86079761D01*
X182561904Y-85984523D01*
X182609523Y-85794047D01*
X182609523Y-85460714D01*
X182561904Y-85270238D01*
X182466666Y-85175000D01*
X182371428Y-85127380D01*
X182180952Y-85127380D01*
X182085714Y-85175000D01*
X181990476Y-85270238D01*
X181942857Y-85460714D01*
X181942857Y-85794047D01*
X181990476Y-85984523D01*
X182085714Y-86079761D01*
X182180952Y-86127380D01*
X182371428Y-86127380D01*
X181561904Y-85222619D02*
X181514285Y-85175000D01*
X181419047Y-85127380D01*
X181180952Y-85127380D01*
X181085714Y-85175000D01*
X181038095Y-85222619D01*
X180990476Y-85317857D01*
X180990476Y-85413095D01*
X181038095Y-85555952D01*
X181609523Y-86127380D01*
X180990476Y-86127380D01*
%TO.C,Q1*%
X181970238Y-81522619D02*
X182065476Y-81475000D01*
X182160714Y-81379761D01*
X182303571Y-81236904D01*
X182398809Y-81189285D01*
X182494047Y-81189285D01*
X182446428Y-81427380D02*
X182541666Y-81379761D01*
X182636904Y-81284523D01*
X182684523Y-81094047D01*
X182684523Y-80760714D01*
X182636904Y-80570238D01*
X182541666Y-80475000D01*
X182446428Y-80427380D01*
X182255952Y-80427380D01*
X182160714Y-80475000D01*
X182065476Y-80570238D01*
X182017857Y-80760714D01*
X182017857Y-81094047D01*
X182065476Y-81284523D01*
X182160714Y-81379761D01*
X182255952Y-81427380D01*
X182446428Y-81427380D01*
X181065476Y-81427380D02*
X181636904Y-81427380D01*
X181351190Y-81427380D02*
X181351190Y-80427380D01*
X181446428Y-80570238D01*
X181541666Y-80665476D01*
X181636904Y-80713095D01*
%TO.C,J1*%
X184052380Y-84766666D02*
X184766666Y-84766666D01*
X184909523Y-84719047D01*
X185004761Y-84623809D01*
X185052380Y-84480952D01*
X185052380Y-84385714D01*
X185052380Y-85766666D02*
X185052380Y-85195238D01*
X185052380Y-85480952D02*
X184052380Y-85480952D01*
X184195238Y-85385714D01*
X184290476Y-85290476D01*
X184338095Y-85195238D01*
%TD*%
M02*
