%TF.GenerationSoftware,KiCad,Pcbnew,(5.1.6)-1*%
%TF.CreationDate,2021-03-06T11:00:20-06:00*%
%TF.ProjectId,tsl2591_smaller,74736c32-3539-4315-9f73-6d616c6c6572,rev?*%
%TF.SameCoordinates,Original*%
%TF.FileFunction,Copper,L1,Top*%
%TF.FilePolarity,Positive*%
%FSLAX46Y46*%
G04 Gerber Fmt 4.6, Leading zero omitted, Abs format (unit mm)*
G04 Created by KiCad (PCBNEW (5.1.6)-1) date 2021-03-06 11:00:20*
%MOMM*%
%LPD*%
G01*
G04 APERTURE LIST*
%TA.AperFunction,SMDPad,CuDef*%
%ADD10C,0.100000*%
%TD*%
%TA.AperFunction,SMDPad,CuDef*%
%ADD11R,0.700000X1.300000*%
%TD*%
%TA.AperFunction,SMDPad,CuDef*%
%ADD12R,1.300000X0.700000*%
%TD*%
%TA.AperFunction,ViaPad*%
%ADD13C,0.800000*%
%TD*%
%TA.AperFunction,Conductor*%
%ADD14C,0.250000*%
%TD*%
%TA.AperFunction,Conductor*%
%ADD15C,0.254000*%
%TD*%
G04 APERTURE END LIST*
%TA.AperFunction,SMDPad,CuDef*%
D10*
%TO.P,U1,1*%
%TO.N,/SCL_out*%
G36*
X182175000Y-78625000D02*
G01*
X180975000Y-78625000D01*
X180975000Y-78275000D01*
X182175000Y-78275000D01*
X182175000Y-78625000D01*
G37*
%TD.AperFunction*%
%TA.AperFunction,SMDPad,CuDef*%
%TO.P,U1,3*%
%TO.N,GND*%
G36*
X182000098Y-79574510D02*
G01*
X182000191Y-79574538D01*
X182000278Y-79574584D01*
X182000354Y-79574646D01*
X182000416Y-79574722D01*
X182000462Y-79574809D01*
X182000490Y-79574902D01*
X182000500Y-79575000D01*
X182000500Y-79575211D01*
X182008587Y-79575211D01*
X182025678Y-79576894D01*
X182042522Y-79580245D01*
X182058956Y-79585230D01*
X182074822Y-79591802D01*
X182089968Y-79599897D01*
X182104247Y-79609439D01*
X182117523Y-79620334D01*
X182129666Y-79632477D01*
X182140561Y-79645753D01*
X182150103Y-79660032D01*
X182158198Y-79675178D01*
X182164770Y-79691044D01*
X182169755Y-79707478D01*
X182173106Y-79724322D01*
X182174789Y-79741413D01*
X182174789Y-79758587D01*
X182173106Y-79775678D01*
X182169755Y-79792522D01*
X182164770Y-79808956D01*
X182158198Y-79824822D01*
X182150103Y-79839968D01*
X182140561Y-79854247D01*
X182129666Y-79867523D01*
X182117523Y-79879666D01*
X182104247Y-79890561D01*
X182089968Y-79900103D01*
X182074822Y-79908198D01*
X182058956Y-79914770D01*
X182042522Y-79919755D01*
X182025678Y-79923106D01*
X182008587Y-79924789D01*
X182000500Y-79924789D01*
X182000500Y-79925000D01*
X182000490Y-79925098D01*
X182000462Y-79925191D01*
X182000416Y-79925278D01*
X182000354Y-79925354D01*
X182000278Y-79925416D01*
X182000191Y-79925462D01*
X182000098Y-79925490D01*
X182000000Y-79925500D01*
X180975000Y-79925500D01*
X180974902Y-79925490D01*
X180974809Y-79925462D01*
X180974722Y-79925416D01*
X180974646Y-79925354D01*
X180974584Y-79925278D01*
X180974538Y-79925191D01*
X180974510Y-79925098D01*
X180974500Y-79925000D01*
X180974500Y-79575000D01*
X180974510Y-79574902D01*
X180974538Y-79574809D01*
X180974584Y-79574722D01*
X180974646Y-79574646D01*
X180974722Y-79574584D01*
X180974809Y-79574538D01*
X180974902Y-79574510D01*
X180975000Y-79574500D01*
X182000000Y-79574500D01*
X182000098Y-79574510D01*
G37*
%TD.AperFunction*%
%TA.AperFunction,SMDPad,CuDef*%
%TO.P,U1,6*%
%TO.N,/SDA_out*%
G36*
X182649902Y-79925490D02*
G01*
X182649809Y-79925462D01*
X182649722Y-79925416D01*
X182649646Y-79925354D01*
X182649584Y-79925278D01*
X182649538Y-79925191D01*
X182649510Y-79925098D01*
X182649500Y-79925000D01*
X182649500Y-79924789D01*
X182641413Y-79924789D01*
X182624322Y-79923106D01*
X182607478Y-79919755D01*
X182591044Y-79914770D01*
X182575178Y-79908198D01*
X182560032Y-79900103D01*
X182545753Y-79890561D01*
X182532477Y-79879666D01*
X182520334Y-79867523D01*
X182509439Y-79854247D01*
X182499897Y-79839968D01*
X182491802Y-79824822D01*
X182485230Y-79808956D01*
X182480245Y-79792522D01*
X182476894Y-79775678D01*
X182475211Y-79758587D01*
X182475211Y-79741413D01*
X182476894Y-79724322D01*
X182480245Y-79707478D01*
X182485230Y-79691044D01*
X182491802Y-79675178D01*
X182499897Y-79660032D01*
X182509439Y-79645753D01*
X182520334Y-79632477D01*
X182532477Y-79620334D01*
X182545753Y-79609439D01*
X182560032Y-79599897D01*
X182575178Y-79591802D01*
X182591044Y-79585230D01*
X182607478Y-79580245D01*
X182624322Y-79576894D01*
X182641413Y-79575211D01*
X182649500Y-79575211D01*
X182649500Y-79575000D01*
X182649510Y-79574902D01*
X182649538Y-79574809D01*
X182649584Y-79574722D01*
X182649646Y-79574646D01*
X182649722Y-79574584D01*
X182649809Y-79574538D01*
X182649902Y-79574510D01*
X182650000Y-79574500D01*
X183675000Y-79574500D01*
X183675098Y-79574510D01*
X183675191Y-79574538D01*
X183675278Y-79574584D01*
X183675354Y-79574646D01*
X183675416Y-79574722D01*
X183675462Y-79574809D01*
X183675490Y-79574902D01*
X183675500Y-79575000D01*
X183675500Y-79925000D01*
X183675490Y-79925098D01*
X183675462Y-79925191D01*
X183675416Y-79925278D01*
X183675354Y-79925354D01*
X183675278Y-79925416D01*
X183675191Y-79925462D01*
X183675098Y-79925490D01*
X183675000Y-79925500D01*
X182650000Y-79925500D01*
X182649902Y-79925490D01*
G37*
%TD.AperFunction*%
%TA.AperFunction,SMDPad,CuDef*%
%TO.P,U1,4*%
%TO.N,N/C*%
G36*
X182649902Y-78625490D02*
G01*
X182649809Y-78625462D01*
X182649722Y-78625416D01*
X182649646Y-78625354D01*
X182649584Y-78625278D01*
X182649538Y-78625191D01*
X182649510Y-78625098D01*
X182649500Y-78625000D01*
X182649500Y-78624789D01*
X182641413Y-78624789D01*
X182624322Y-78623106D01*
X182607478Y-78619755D01*
X182591044Y-78614770D01*
X182575178Y-78608198D01*
X182560032Y-78600103D01*
X182545753Y-78590561D01*
X182532477Y-78579666D01*
X182520334Y-78567523D01*
X182509439Y-78554247D01*
X182499897Y-78539968D01*
X182491802Y-78524822D01*
X182485230Y-78508956D01*
X182480245Y-78492522D01*
X182476894Y-78475678D01*
X182475211Y-78458587D01*
X182475211Y-78441413D01*
X182476894Y-78424322D01*
X182480245Y-78407478D01*
X182485230Y-78391044D01*
X182491802Y-78375178D01*
X182499897Y-78360032D01*
X182509439Y-78345753D01*
X182520334Y-78332477D01*
X182532477Y-78320334D01*
X182545753Y-78309439D01*
X182560032Y-78299897D01*
X182575178Y-78291802D01*
X182591044Y-78285230D01*
X182607478Y-78280245D01*
X182624322Y-78276894D01*
X182641413Y-78275211D01*
X182649500Y-78275211D01*
X182649500Y-78275000D01*
X182649510Y-78274902D01*
X182649538Y-78274809D01*
X182649584Y-78274722D01*
X182649646Y-78274646D01*
X182649722Y-78274584D01*
X182649809Y-78274538D01*
X182649902Y-78274510D01*
X182650000Y-78274500D01*
X183675000Y-78274500D01*
X183675098Y-78274510D01*
X183675191Y-78274538D01*
X183675278Y-78274584D01*
X183675354Y-78274646D01*
X183675416Y-78274722D01*
X183675462Y-78274809D01*
X183675490Y-78274902D01*
X183675500Y-78275000D01*
X183675500Y-78625000D01*
X183675490Y-78625098D01*
X183675462Y-78625191D01*
X183675416Y-78625278D01*
X183675354Y-78625354D01*
X183675278Y-78625416D01*
X183675191Y-78625462D01*
X183675098Y-78625490D01*
X183675000Y-78625500D01*
X182650000Y-78625500D01*
X182649902Y-78625490D01*
G37*
%TD.AperFunction*%
%TA.AperFunction,SMDPad,CuDef*%
%TO.P,U1,5*%
%TO.N,+3V3*%
G36*
X182649902Y-79275490D02*
G01*
X182649809Y-79275462D01*
X182649722Y-79275416D01*
X182649646Y-79275354D01*
X182649584Y-79275278D01*
X182649538Y-79275191D01*
X182649510Y-79275098D01*
X182649500Y-79275000D01*
X182649500Y-79274789D01*
X182641413Y-79274789D01*
X182624322Y-79273106D01*
X182607478Y-79269755D01*
X182591044Y-79264770D01*
X182575178Y-79258198D01*
X182560032Y-79250103D01*
X182545753Y-79240561D01*
X182532477Y-79229666D01*
X182520334Y-79217523D01*
X182509439Y-79204247D01*
X182499897Y-79189968D01*
X182491802Y-79174822D01*
X182485230Y-79158956D01*
X182480245Y-79142522D01*
X182476894Y-79125678D01*
X182475211Y-79108587D01*
X182475211Y-79091413D01*
X182476894Y-79074322D01*
X182480245Y-79057478D01*
X182485230Y-79041044D01*
X182491802Y-79025178D01*
X182499897Y-79010032D01*
X182509439Y-78995753D01*
X182520334Y-78982477D01*
X182532477Y-78970334D01*
X182545753Y-78959439D01*
X182560032Y-78949897D01*
X182575178Y-78941802D01*
X182591044Y-78935230D01*
X182607478Y-78930245D01*
X182624322Y-78926894D01*
X182641413Y-78925211D01*
X182649500Y-78925211D01*
X182649500Y-78925000D01*
X182649510Y-78924902D01*
X182649538Y-78924809D01*
X182649584Y-78924722D01*
X182649646Y-78924646D01*
X182649722Y-78924584D01*
X182649809Y-78924538D01*
X182649902Y-78924510D01*
X182650000Y-78924500D01*
X183675000Y-78924500D01*
X183675098Y-78924510D01*
X183675191Y-78924538D01*
X183675278Y-78924584D01*
X183675354Y-78924646D01*
X183675416Y-78924722D01*
X183675462Y-78924809D01*
X183675490Y-78924902D01*
X183675500Y-78925000D01*
X183675500Y-79275000D01*
X183675490Y-79275098D01*
X183675462Y-79275191D01*
X183675416Y-79275278D01*
X183675354Y-79275354D01*
X183675278Y-79275416D01*
X183675191Y-79275462D01*
X183675098Y-79275490D01*
X183675000Y-79275500D01*
X182650000Y-79275500D01*
X182649902Y-79275490D01*
G37*
%TD.AperFunction*%
%TA.AperFunction,SMDPad,CuDef*%
%TO.P,U1,2*%
%TO.N,N/C*%
G36*
X182000098Y-78924510D02*
G01*
X182000191Y-78924538D01*
X182000278Y-78924584D01*
X182000354Y-78924646D01*
X182000416Y-78924722D01*
X182000462Y-78924809D01*
X182000490Y-78924902D01*
X182000500Y-78925000D01*
X182000500Y-78925211D01*
X182008587Y-78925211D01*
X182025678Y-78926894D01*
X182042522Y-78930245D01*
X182058956Y-78935230D01*
X182074822Y-78941802D01*
X182089968Y-78949897D01*
X182104247Y-78959439D01*
X182117523Y-78970334D01*
X182129666Y-78982477D01*
X182140561Y-78995753D01*
X182150103Y-79010032D01*
X182158198Y-79025178D01*
X182164770Y-79041044D01*
X182169755Y-79057478D01*
X182173106Y-79074322D01*
X182174789Y-79091413D01*
X182174789Y-79108587D01*
X182173106Y-79125678D01*
X182169755Y-79142522D01*
X182164770Y-79158956D01*
X182158198Y-79174822D01*
X182150103Y-79189968D01*
X182140561Y-79204247D01*
X182129666Y-79217523D01*
X182117523Y-79229666D01*
X182104247Y-79240561D01*
X182089968Y-79250103D01*
X182074822Y-79258198D01*
X182058956Y-79264770D01*
X182042522Y-79269755D01*
X182025678Y-79273106D01*
X182008587Y-79274789D01*
X182000500Y-79274789D01*
X182000500Y-79275000D01*
X182000490Y-79275098D01*
X182000462Y-79275191D01*
X182000416Y-79275278D01*
X182000354Y-79275354D01*
X182000278Y-79275416D01*
X182000191Y-79275462D01*
X182000098Y-79275490D01*
X182000000Y-79275500D01*
X180975000Y-79275500D01*
X180974902Y-79275490D01*
X180974809Y-79275462D01*
X180974722Y-79275416D01*
X180974646Y-79275354D01*
X180974584Y-79275278D01*
X180974538Y-79275191D01*
X180974510Y-79275098D01*
X180974500Y-79275000D01*
X180974500Y-78925000D01*
X180974510Y-78924902D01*
X180974538Y-78924809D01*
X180974584Y-78924722D01*
X180974646Y-78924646D01*
X180974722Y-78924584D01*
X180974809Y-78924538D01*
X180974902Y-78924510D01*
X180975000Y-78924500D01*
X182000000Y-78924500D01*
X182000098Y-78924510D01*
G37*
%TD.AperFunction*%
%TD*%
D11*
%TO.P,R2,1*%
%TO.N,+3V3*%
X183325000Y-83825000D03*
%TO.P,R2,2*%
%TO.N,/SDA_out*%
X181425000Y-83825000D03*
%TD*%
%TO.P,R1,1*%
%TO.N,+3V3*%
X183650000Y-87700000D03*
%TO.P,R1,2*%
%TO.N,/SCL_out*%
X181750000Y-87700000D03*
%TD*%
D12*
%TO.P,C1,1*%
%TO.N,GND*%
X189500000Y-85900000D03*
%TO.P,C1,2*%
%TO.N,+3V3*%
X189500000Y-84000000D03*
%TD*%
D13*
%TO.N,+3V3*%
X185125000Y-83325000D03*
X185150000Y-87125000D03*
X191400000Y-82875000D03*
X185975000Y-78325000D03*
%TO.N,GND*%
X191250000Y-87625000D03*
%TO.N,/SCL_out*%
X181175000Y-85775000D03*
%TO.N,/SDA_out*%
X181400000Y-81575000D03*
X185700000Y-79925000D03*
%TD*%
D14*
%TO.N,+3V3*%
X184450000Y-84000000D02*
X183500000Y-84000000D01*
X184450000Y-84000000D02*
X185125000Y-83325000D01*
X185125000Y-83325000D02*
X185125000Y-83325000D01*
X182650000Y-79100000D02*
X184000000Y-79100000D01*
X184000000Y-79100000D02*
X184775000Y-78325000D01*
X184775000Y-78325000D02*
X184775000Y-78325000D01*
X183650000Y-87700000D02*
X184575000Y-87700000D01*
X184575000Y-87700000D02*
X185150000Y-87125000D01*
X185150000Y-87125000D02*
X185150000Y-87125000D01*
X189500000Y-84000000D02*
X190275000Y-84000000D01*
X190275000Y-84000000D02*
X191175000Y-83100000D01*
X191175000Y-83100000D02*
X191400000Y-82875000D01*
X191400000Y-82875000D02*
X191400000Y-82875000D01*
X184775000Y-78325000D02*
X185975000Y-78325000D01*
X185975000Y-78325000D02*
X185975000Y-78325000D01*
%TO.N,GND*%
X189500000Y-85900000D02*
X190150000Y-85900000D01*
X191250000Y-87000000D02*
X191250000Y-87625000D01*
X190150000Y-85900000D02*
X191250000Y-87000000D01*
X181500000Y-79750000D02*
X181525000Y-79775000D01*
X182000000Y-79750000D02*
X181500000Y-79750000D01*
X182000000Y-79750000D02*
X181425000Y-79750000D01*
X181425000Y-79750000D02*
X181475000Y-79800000D01*
X181475000Y-79800000D02*
X181475000Y-80625000D01*
%TO.N,/SCL_out*%
X181175000Y-85775000D02*
X181750000Y-86350000D01*
X181750000Y-86350000D02*
X181750000Y-87225000D01*
X181175000Y-85775000D02*
X180450000Y-85775000D01*
X180450000Y-85775000D02*
X179575000Y-84900000D01*
X179575000Y-84900000D02*
X179575000Y-78525000D01*
X179575000Y-78525000D02*
X179675000Y-78425000D01*
X179675000Y-78425000D02*
X181400000Y-78425000D01*
%TO.N,/SDA_out*%
X181400000Y-83100000D02*
X181400000Y-83325000D01*
X182650000Y-79750000D02*
X184700000Y-79750000D01*
X181400000Y-83100000D02*
X181400000Y-81575000D01*
X181400000Y-81575000D02*
X181400000Y-81575000D01*
X184700000Y-79750000D02*
X185525000Y-79750000D01*
X185525000Y-79750000D02*
X185700000Y-79925000D01*
X185700000Y-79925000D02*
X185700000Y-79925000D01*
%TD*%
D15*
%TO.N,GND*%
G36*
X191798001Y-82266580D02*
G01*
X191744364Y-82230741D01*
X191612058Y-82175938D01*
X191471603Y-82148000D01*
X191328397Y-82148000D01*
X191187942Y-82175938D01*
X191055636Y-82230741D01*
X190936564Y-82310302D01*
X190835302Y-82411564D01*
X190755741Y-82530636D01*
X190700938Y-82662942D01*
X190673000Y-82803397D01*
X190673000Y-82946603D01*
X190675683Y-82960092D01*
X190284608Y-83351168D01*
X190275743Y-83346430D01*
X190214103Y-83327732D01*
X190150000Y-83321418D01*
X188850000Y-83321418D01*
X188785897Y-83327732D01*
X188724257Y-83346430D01*
X188667450Y-83376794D01*
X188617657Y-83417657D01*
X188576794Y-83467450D01*
X188546430Y-83524257D01*
X188527732Y-83585897D01*
X188521418Y-83650000D01*
X188521418Y-84350000D01*
X188527732Y-84414103D01*
X188546430Y-84475743D01*
X188576794Y-84532550D01*
X188617657Y-84582343D01*
X188667450Y-84623206D01*
X188724257Y-84653570D01*
X188785897Y-84672268D01*
X188850000Y-84678582D01*
X190150000Y-84678582D01*
X190214103Y-84672268D01*
X190275743Y-84653570D01*
X190332550Y-84623206D01*
X190382343Y-84582343D01*
X190423206Y-84532550D01*
X190453570Y-84475743D01*
X190472268Y-84414103D01*
X190472999Y-84406685D01*
X190527333Y-84377643D01*
X190596159Y-84321159D01*
X190610323Y-84303900D01*
X191314908Y-83599317D01*
X191328397Y-83602000D01*
X191471603Y-83602000D01*
X191612058Y-83574062D01*
X191744364Y-83519259D01*
X191798000Y-83483420D01*
X191798000Y-89773000D01*
X178402000Y-89773000D01*
X178402000Y-78525000D01*
X179120813Y-78525000D01*
X179123001Y-78547215D01*
X179123000Y-84877795D01*
X179120813Y-84900000D01*
X179123000Y-84922204D01*
X179129540Y-84988606D01*
X179155386Y-85073809D01*
X179197357Y-85152332D01*
X179253841Y-85221159D01*
X179271100Y-85235323D01*
X180114681Y-86078905D01*
X180128841Y-86096159D01*
X180197667Y-86152643D01*
X180276190Y-86194614D01*
X180361392Y-86220460D01*
X180450000Y-86229187D01*
X180472205Y-86227000D01*
X180602661Y-86227000D01*
X180610302Y-86238436D01*
X180711564Y-86339698D01*
X180830636Y-86419259D01*
X180962942Y-86474062D01*
X181103397Y-86502000D01*
X181246603Y-86502000D01*
X181260093Y-86499317D01*
X181298000Y-86537224D01*
X181298000Y-86739228D01*
X181274257Y-86746430D01*
X181217450Y-86776794D01*
X181167657Y-86817657D01*
X181126794Y-86867450D01*
X181096430Y-86924257D01*
X181077732Y-86985897D01*
X181071418Y-87050000D01*
X181071418Y-88350000D01*
X181077732Y-88414103D01*
X181096430Y-88475743D01*
X181126794Y-88532550D01*
X181167657Y-88582343D01*
X181217450Y-88623206D01*
X181274257Y-88653570D01*
X181335897Y-88672268D01*
X181400000Y-88678582D01*
X182100000Y-88678582D01*
X182164103Y-88672268D01*
X182225743Y-88653570D01*
X182282550Y-88623206D01*
X182332343Y-88582343D01*
X182373206Y-88532550D01*
X182403570Y-88475743D01*
X182422268Y-88414103D01*
X182428582Y-88350000D01*
X182428582Y-87050000D01*
X182971418Y-87050000D01*
X182971418Y-88350000D01*
X182977732Y-88414103D01*
X182996430Y-88475743D01*
X183026794Y-88532550D01*
X183067657Y-88582343D01*
X183117450Y-88623206D01*
X183174257Y-88653570D01*
X183235897Y-88672268D01*
X183300000Y-88678582D01*
X184000000Y-88678582D01*
X184064103Y-88672268D01*
X184125743Y-88653570D01*
X184182550Y-88623206D01*
X184232343Y-88582343D01*
X184273206Y-88532550D01*
X184303570Y-88475743D01*
X184322268Y-88414103D01*
X184328582Y-88350000D01*
X184328582Y-88152000D01*
X184552795Y-88152000D01*
X184575000Y-88154187D01*
X184597205Y-88152000D01*
X184663607Y-88145460D01*
X184748810Y-88119614D01*
X184827333Y-88077643D01*
X184896159Y-88021159D01*
X184910323Y-88003900D01*
X185064907Y-87849317D01*
X185078397Y-87852000D01*
X185221603Y-87852000D01*
X185362058Y-87824062D01*
X185494364Y-87769259D01*
X185613436Y-87689698D01*
X185714698Y-87588436D01*
X185794259Y-87469364D01*
X185849062Y-87337058D01*
X185877000Y-87196603D01*
X185877000Y-87053397D01*
X185849062Y-86912942D01*
X185794259Y-86780636D01*
X185714698Y-86661564D01*
X185613436Y-86560302D01*
X185494364Y-86480741D01*
X185362058Y-86425938D01*
X185221603Y-86398000D01*
X185078397Y-86398000D01*
X184937942Y-86425938D01*
X184805636Y-86480741D01*
X184686564Y-86560302D01*
X184585302Y-86661564D01*
X184505741Y-86780636D01*
X184450938Y-86912942D01*
X184423000Y-87053397D01*
X184423000Y-87196603D01*
X184425683Y-87210093D01*
X184387777Y-87248000D01*
X184328582Y-87248000D01*
X184328582Y-87050000D01*
X184322268Y-86985897D01*
X184303570Y-86924257D01*
X184273206Y-86867450D01*
X184232343Y-86817657D01*
X184182550Y-86776794D01*
X184125743Y-86746430D01*
X184064103Y-86727732D01*
X184000000Y-86721418D01*
X183300000Y-86721418D01*
X183235897Y-86727732D01*
X183174257Y-86746430D01*
X183117450Y-86776794D01*
X183067657Y-86817657D01*
X183026794Y-86867450D01*
X182996430Y-86924257D01*
X182977732Y-86985897D01*
X182971418Y-87050000D01*
X182428582Y-87050000D01*
X182422268Y-86985897D01*
X182403570Y-86924257D01*
X182373206Y-86867450D01*
X182332343Y-86817657D01*
X182282550Y-86776794D01*
X182225743Y-86746430D01*
X182202000Y-86739228D01*
X182202000Y-86372205D01*
X182204187Y-86350000D01*
X182195460Y-86261392D01*
X182192005Y-86250000D01*
X188211928Y-86250000D01*
X188224188Y-86374482D01*
X188260498Y-86494180D01*
X188319463Y-86604494D01*
X188398815Y-86701185D01*
X188495506Y-86780537D01*
X188605820Y-86839502D01*
X188725518Y-86875812D01*
X188850000Y-86888072D01*
X189214250Y-86885000D01*
X189373000Y-86726250D01*
X189373000Y-86027000D01*
X189627000Y-86027000D01*
X189627000Y-86726250D01*
X189785750Y-86885000D01*
X190150000Y-86888072D01*
X190274482Y-86875812D01*
X190394180Y-86839502D01*
X190504494Y-86780537D01*
X190601185Y-86701185D01*
X190680537Y-86604494D01*
X190739502Y-86494180D01*
X190775812Y-86374482D01*
X190788072Y-86250000D01*
X190785000Y-86185750D01*
X190626250Y-86027000D01*
X189627000Y-86027000D01*
X189373000Y-86027000D01*
X188373750Y-86027000D01*
X188215000Y-86185750D01*
X188211928Y-86250000D01*
X182192005Y-86250000D01*
X182169614Y-86176190D01*
X182134402Y-86110313D01*
X182127643Y-86097667D01*
X182071159Y-86028841D01*
X182053906Y-86014682D01*
X181899317Y-85860093D01*
X181902000Y-85846603D01*
X181902000Y-85703397D01*
X181874062Y-85562942D01*
X181868702Y-85550000D01*
X188211928Y-85550000D01*
X188215000Y-85614250D01*
X188373750Y-85773000D01*
X189373000Y-85773000D01*
X189373000Y-85073750D01*
X189627000Y-85073750D01*
X189627000Y-85773000D01*
X190626250Y-85773000D01*
X190785000Y-85614250D01*
X190788072Y-85550000D01*
X190775812Y-85425518D01*
X190739502Y-85305820D01*
X190680537Y-85195506D01*
X190601185Y-85098815D01*
X190504494Y-85019463D01*
X190394180Y-84960498D01*
X190274482Y-84924188D01*
X190150000Y-84911928D01*
X189785750Y-84915000D01*
X189627000Y-85073750D01*
X189373000Y-85073750D01*
X189214250Y-84915000D01*
X188850000Y-84911928D01*
X188725518Y-84924188D01*
X188605820Y-84960498D01*
X188495506Y-85019463D01*
X188398815Y-85098815D01*
X188319463Y-85195506D01*
X188260498Y-85305820D01*
X188224188Y-85425518D01*
X188211928Y-85550000D01*
X181868702Y-85550000D01*
X181819259Y-85430636D01*
X181739698Y-85311564D01*
X181638436Y-85210302D01*
X181519364Y-85130741D01*
X181387058Y-85075938D01*
X181246603Y-85048000D01*
X181103397Y-85048000D01*
X180962942Y-85075938D01*
X180830636Y-85130741D01*
X180711564Y-85210302D01*
X180618045Y-85303821D01*
X180027000Y-84712777D01*
X180027000Y-81503397D01*
X180673000Y-81503397D01*
X180673000Y-81646603D01*
X180700938Y-81787058D01*
X180755741Y-81919364D01*
X180835302Y-82038436D01*
X180936564Y-82139698D01*
X180948001Y-82147340D01*
X180948000Y-82872102D01*
X180892450Y-82901794D01*
X180842657Y-82942657D01*
X180801794Y-82992450D01*
X180771430Y-83049257D01*
X180752732Y-83110897D01*
X180746418Y-83175000D01*
X180746418Y-84475000D01*
X180752732Y-84539103D01*
X180771430Y-84600743D01*
X180801794Y-84657550D01*
X180842657Y-84707343D01*
X180892450Y-84748206D01*
X180949257Y-84778570D01*
X181010897Y-84797268D01*
X181075000Y-84803582D01*
X181775000Y-84803582D01*
X181839103Y-84797268D01*
X181900743Y-84778570D01*
X181957550Y-84748206D01*
X182007343Y-84707343D01*
X182048206Y-84657550D01*
X182078570Y-84600743D01*
X182097268Y-84539103D01*
X182103582Y-84475000D01*
X182103582Y-83175000D01*
X182646418Y-83175000D01*
X182646418Y-84475000D01*
X182652732Y-84539103D01*
X182671430Y-84600743D01*
X182701794Y-84657550D01*
X182742657Y-84707343D01*
X182792450Y-84748206D01*
X182849257Y-84778570D01*
X182910897Y-84797268D01*
X182975000Y-84803582D01*
X183675000Y-84803582D01*
X183739103Y-84797268D01*
X183800743Y-84778570D01*
X183857550Y-84748206D01*
X183907343Y-84707343D01*
X183948206Y-84657550D01*
X183978570Y-84600743D01*
X183997268Y-84539103D01*
X184003582Y-84475000D01*
X184003582Y-84452000D01*
X184427795Y-84452000D01*
X184450000Y-84454187D01*
X184472205Y-84452000D01*
X184538607Y-84445460D01*
X184623810Y-84419614D01*
X184702333Y-84377643D01*
X184771159Y-84321159D01*
X184785323Y-84303900D01*
X185039907Y-84049317D01*
X185053397Y-84052000D01*
X185196603Y-84052000D01*
X185337058Y-84024062D01*
X185469364Y-83969259D01*
X185588436Y-83889698D01*
X185689698Y-83788436D01*
X185769259Y-83669364D01*
X185824062Y-83537058D01*
X185852000Y-83396603D01*
X185852000Y-83253397D01*
X185824062Y-83112942D01*
X185769259Y-82980636D01*
X185689698Y-82861564D01*
X185588436Y-82760302D01*
X185469364Y-82680741D01*
X185337058Y-82625938D01*
X185196603Y-82598000D01*
X185053397Y-82598000D01*
X184912942Y-82625938D01*
X184780636Y-82680741D01*
X184661564Y-82760302D01*
X184560302Y-82861564D01*
X184480741Y-82980636D01*
X184425938Y-83112942D01*
X184398000Y-83253397D01*
X184398000Y-83396603D01*
X184400683Y-83410093D01*
X184262777Y-83548000D01*
X184003582Y-83548000D01*
X184003582Y-83175000D01*
X183997268Y-83110897D01*
X183978570Y-83049257D01*
X183948206Y-82992450D01*
X183907343Y-82942657D01*
X183857550Y-82901794D01*
X183800743Y-82871430D01*
X183739103Y-82852732D01*
X183675000Y-82846418D01*
X182975000Y-82846418D01*
X182910897Y-82852732D01*
X182849257Y-82871430D01*
X182792450Y-82901794D01*
X182742657Y-82942657D01*
X182701794Y-82992450D01*
X182671430Y-83049257D01*
X182652732Y-83110897D01*
X182646418Y-83175000D01*
X182103582Y-83175000D01*
X182097268Y-83110897D01*
X182078570Y-83049257D01*
X182048206Y-82992450D01*
X182007343Y-82942657D01*
X181957550Y-82901794D01*
X181900743Y-82871430D01*
X181852000Y-82856644D01*
X181852000Y-82147339D01*
X181863436Y-82139698D01*
X181964698Y-82038436D01*
X182044259Y-81919364D01*
X182099062Y-81787058D01*
X182127000Y-81646603D01*
X182127000Y-81503397D01*
X182099062Y-81362942D01*
X182044259Y-81230636D01*
X181964698Y-81111564D01*
X181863436Y-81010302D01*
X181744364Y-80930741D01*
X181612058Y-80875938D01*
X181471603Y-80848000D01*
X181328397Y-80848000D01*
X181187942Y-80875938D01*
X181055636Y-80930741D01*
X180936564Y-81010302D01*
X180835302Y-81111564D01*
X180755741Y-81230636D01*
X180700938Y-81362942D01*
X180673000Y-81503397D01*
X180027000Y-81503397D01*
X180027000Y-78877000D01*
X180650529Y-78877000D01*
X180647625Y-78891546D01*
X180647615Y-78891644D01*
X180645918Y-78925000D01*
X180645918Y-79030759D01*
X180571380Y-79080164D01*
X180571304Y-79080226D01*
X180480226Y-79171304D01*
X180480164Y-79171380D01*
X180410506Y-79276474D01*
X180410460Y-79276561D01*
X180363557Y-79390858D01*
X180363529Y-79390951D01*
X180339734Y-79510129D01*
X180339724Y-79510227D01*
X180336428Y-79575000D01*
X180336428Y-79925000D01*
X180339724Y-79989773D01*
X180339734Y-79989871D01*
X180363529Y-80109049D01*
X180363557Y-80109142D01*
X180410460Y-80223439D01*
X180410506Y-80223526D01*
X180480164Y-80328620D01*
X180480226Y-80328696D01*
X180571304Y-80419774D01*
X180571380Y-80419836D01*
X180676474Y-80489494D01*
X180676561Y-80489540D01*
X180790858Y-80536443D01*
X180790951Y-80536471D01*
X180910129Y-80560266D01*
X180910227Y-80560276D01*
X180975000Y-80563572D01*
X182000000Y-80563572D01*
X182064773Y-80560276D01*
X182064871Y-80560266D01*
X182091918Y-80554866D01*
X182141620Y-80549971D01*
X182175267Y-80543279D01*
X182294994Y-80506961D01*
X182326688Y-80493832D01*
X182436978Y-80434880D01*
X182465503Y-80415821D01*
X182562204Y-80336462D01*
X182586462Y-80312204D01*
X182634795Y-80253308D01*
X182650000Y-80254082D01*
X183675000Y-80254082D01*
X183708356Y-80252385D01*
X183708454Y-80252375D01*
X183769826Y-80240121D01*
X183769919Y-80240093D01*
X183828777Y-80215940D01*
X183828864Y-80215894D01*
X183849826Y-80202000D01*
X185027838Y-80202000D01*
X185055741Y-80269364D01*
X185135302Y-80388436D01*
X185236564Y-80489698D01*
X185355636Y-80569259D01*
X185487942Y-80624062D01*
X185628397Y-80652000D01*
X185771603Y-80652000D01*
X185912058Y-80624062D01*
X186044364Y-80569259D01*
X186163436Y-80489698D01*
X186264698Y-80388436D01*
X186344259Y-80269364D01*
X186399062Y-80137058D01*
X186427000Y-79996603D01*
X186427000Y-79853397D01*
X186399062Y-79712942D01*
X186344259Y-79580636D01*
X186264698Y-79461564D01*
X186163436Y-79360302D01*
X186044364Y-79280741D01*
X185912058Y-79225938D01*
X185771603Y-79198000D01*
X185628397Y-79198000D01*
X185487942Y-79225938D01*
X185355636Y-79280741D01*
X185329806Y-79298000D01*
X184441223Y-79298000D01*
X184962224Y-78777000D01*
X185402661Y-78777000D01*
X185410302Y-78788436D01*
X185511564Y-78889698D01*
X185630636Y-78969259D01*
X185762942Y-79024062D01*
X185903397Y-79052000D01*
X186046603Y-79052000D01*
X186187058Y-79024062D01*
X186319364Y-78969259D01*
X186438436Y-78889698D01*
X186539698Y-78788436D01*
X186619259Y-78669364D01*
X186674062Y-78537058D01*
X186702000Y-78396603D01*
X186702000Y-78253397D01*
X186674062Y-78112942D01*
X186619259Y-77980636D01*
X186539698Y-77861564D01*
X186438436Y-77760302D01*
X186319364Y-77680741D01*
X186187058Y-77625938D01*
X186046603Y-77598000D01*
X185903397Y-77598000D01*
X185762942Y-77625938D01*
X185630636Y-77680741D01*
X185511564Y-77760302D01*
X185410302Y-77861564D01*
X185402661Y-77873000D01*
X184797205Y-77873000D01*
X184775000Y-77870813D01*
X184686392Y-77879540D01*
X184601190Y-77905386D01*
X184522667Y-77947357D01*
X184453841Y-78003841D01*
X184439681Y-78021095D01*
X184004082Y-78456695D01*
X184004082Y-78275000D01*
X184002385Y-78241644D01*
X184002375Y-78241546D01*
X183990121Y-78180174D01*
X183990093Y-78180081D01*
X183965940Y-78121223D01*
X183965894Y-78121136D01*
X183930023Y-78067017D01*
X183929961Y-78066941D01*
X183883059Y-78020039D01*
X183882983Y-78019977D01*
X183828864Y-77984106D01*
X183828777Y-77984060D01*
X183769919Y-77959907D01*
X183769826Y-77959879D01*
X183708454Y-77947625D01*
X183708356Y-77947615D01*
X183675000Y-77945918D01*
X182650000Y-77945918D01*
X182616644Y-77947615D01*
X182616546Y-77947625D01*
X182604279Y-77950074D01*
X182568751Y-77953573D01*
X182535104Y-77960265D01*
X182473450Y-77978968D01*
X182441756Y-77992097D01*
X182384961Y-78022455D01*
X182383729Y-78023278D01*
X182357550Y-78001794D01*
X182300743Y-77971430D01*
X182239103Y-77952732D01*
X182175000Y-77946418D01*
X180975000Y-77946418D01*
X180910897Y-77952732D01*
X180849257Y-77971430D01*
X180846320Y-77973000D01*
X179697204Y-77973000D01*
X179674999Y-77970813D01*
X179586392Y-77979540D01*
X179571341Y-77984106D01*
X179501190Y-78005386D01*
X179422667Y-78047357D01*
X179353841Y-78103841D01*
X179339680Y-78121096D01*
X179271095Y-78189682D01*
X179253842Y-78203841D01*
X179197358Y-78272667D01*
X179155386Y-78351191D01*
X179129540Y-78436393D01*
X179120813Y-78525000D01*
X178402000Y-78525000D01*
X178402000Y-76377000D01*
X191798001Y-76377000D01*
X191798001Y-82266580D01*
G37*
X191798001Y-82266580D02*
X191744364Y-82230741D01*
X191612058Y-82175938D01*
X191471603Y-82148000D01*
X191328397Y-82148000D01*
X191187942Y-82175938D01*
X191055636Y-82230741D01*
X190936564Y-82310302D01*
X190835302Y-82411564D01*
X190755741Y-82530636D01*
X190700938Y-82662942D01*
X190673000Y-82803397D01*
X190673000Y-82946603D01*
X190675683Y-82960092D01*
X190284608Y-83351168D01*
X190275743Y-83346430D01*
X190214103Y-83327732D01*
X190150000Y-83321418D01*
X188850000Y-83321418D01*
X188785897Y-83327732D01*
X188724257Y-83346430D01*
X188667450Y-83376794D01*
X188617657Y-83417657D01*
X188576794Y-83467450D01*
X188546430Y-83524257D01*
X188527732Y-83585897D01*
X188521418Y-83650000D01*
X188521418Y-84350000D01*
X188527732Y-84414103D01*
X188546430Y-84475743D01*
X188576794Y-84532550D01*
X188617657Y-84582343D01*
X188667450Y-84623206D01*
X188724257Y-84653570D01*
X188785897Y-84672268D01*
X188850000Y-84678582D01*
X190150000Y-84678582D01*
X190214103Y-84672268D01*
X190275743Y-84653570D01*
X190332550Y-84623206D01*
X190382343Y-84582343D01*
X190423206Y-84532550D01*
X190453570Y-84475743D01*
X190472268Y-84414103D01*
X190472999Y-84406685D01*
X190527333Y-84377643D01*
X190596159Y-84321159D01*
X190610323Y-84303900D01*
X191314908Y-83599317D01*
X191328397Y-83602000D01*
X191471603Y-83602000D01*
X191612058Y-83574062D01*
X191744364Y-83519259D01*
X191798000Y-83483420D01*
X191798000Y-89773000D01*
X178402000Y-89773000D01*
X178402000Y-78525000D01*
X179120813Y-78525000D01*
X179123001Y-78547215D01*
X179123000Y-84877795D01*
X179120813Y-84900000D01*
X179123000Y-84922204D01*
X179129540Y-84988606D01*
X179155386Y-85073809D01*
X179197357Y-85152332D01*
X179253841Y-85221159D01*
X179271100Y-85235323D01*
X180114681Y-86078905D01*
X180128841Y-86096159D01*
X180197667Y-86152643D01*
X180276190Y-86194614D01*
X180361392Y-86220460D01*
X180450000Y-86229187D01*
X180472205Y-86227000D01*
X180602661Y-86227000D01*
X180610302Y-86238436D01*
X180711564Y-86339698D01*
X180830636Y-86419259D01*
X180962942Y-86474062D01*
X181103397Y-86502000D01*
X181246603Y-86502000D01*
X181260093Y-86499317D01*
X181298000Y-86537224D01*
X181298000Y-86739228D01*
X181274257Y-86746430D01*
X181217450Y-86776794D01*
X181167657Y-86817657D01*
X181126794Y-86867450D01*
X181096430Y-86924257D01*
X181077732Y-86985897D01*
X181071418Y-87050000D01*
X181071418Y-88350000D01*
X181077732Y-88414103D01*
X181096430Y-88475743D01*
X181126794Y-88532550D01*
X181167657Y-88582343D01*
X181217450Y-88623206D01*
X181274257Y-88653570D01*
X181335897Y-88672268D01*
X181400000Y-88678582D01*
X182100000Y-88678582D01*
X182164103Y-88672268D01*
X182225743Y-88653570D01*
X182282550Y-88623206D01*
X182332343Y-88582343D01*
X182373206Y-88532550D01*
X182403570Y-88475743D01*
X182422268Y-88414103D01*
X182428582Y-88350000D01*
X182428582Y-87050000D01*
X182971418Y-87050000D01*
X182971418Y-88350000D01*
X182977732Y-88414103D01*
X182996430Y-88475743D01*
X183026794Y-88532550D01*
X183067657Y-88582343D01*
X183117450Y-88623206D01*
X183174257Y-88653570D01*
X183235897Y-88672268D01*
X183300000Y-88678582D01*
X184000000Y-88678582D01*
X184064103Y-88672268D01*
X184125743Y-88653570D01*
X184182550Y-88623206D01*
X184232343Y-88582343D01*
X184273206Y-88532550D01*
X184303570Y-88475743D01*
X184322268Y-88414103D01*
X184328582Y-88350000D01*
X184328582Y-88152000D01*
X184552795Y-88152000D01*
X184575000Y-88154187D01*
X184597205Y-88152000D01*
X184663607Y-88145460D01*
X184748810Y-88119614D01*
X184827333Y-88077643D01*
X184896159Y-88021159D01*
X184910323Y-88003900D01*
X185064907Y-87849317D01*
X185078397Y-87852000D01*
X185221603Y-87852000D01*
X185362058Y-87824062D01*
X185494364Y-87769259D01*
X185613436Y-87689698D01*
X185714698Y-87588436D01*
X185794259Y-87469364D01*
X185849062Y-87337058D01*
X185877000Y-87196603D01*
X185877000Y-87053397D01*
X185849062Y-86912942D01*
X185794259Y-86780636D01*
X185714698Y-86661564D01*
X185613436Y-86560302D01*
X185494364Y-86480741D01*
X185362058Y-86425938D01*
X185221603Y-86398000D01*
X185078397Y-86398000D01*
X184937942Y-86425938D01*
X184805636Y-86480741D01*
X184686564Y-86560302D01*
X184585302Y-86661564D01*
X184505741Y-86780636D01*
X184450938Y-86912942D01*
X184423000Y-87053397D01*
X184423000Y-87196603D01*
X184425683Y-87210093D01*
X184387777Y-87248000D01*
X184328582Y-87248000D01*
X184328582Y-87050000D01*
X184322268Y-86985897D01*
X184303570Y-86924257D01*
X184273206Y-86867450D01*
X184232343Y-86817657D01*
X184182550Y-86776794D01*
X184125743Y-86746430D01*
X184064103Y-86727732D01*
X184000000Y-86721418D01*
X183300000Y-86721418D01*
X183235897Y-86727732D01*
X183174257Y-86746430D01*
X183117450Y-86776794D01*
X183067657Y-86817657D01*
X183026794Y-86867450D01*
X182996430Y-86924257D01*
X182977732Y-86985897D01*
X182971418Y-87050000D01*
X182428582Y-87050000D01*
X182422268Y-86985897D01*
X182403570Y-86924257D01*
X182373206Y-86867450D01*
X182332343Y-86817657D01*
X182282550Y-86776794D01*
X182225743Y-86746430D01*
X182202000Y-86739228D01*
X182202000Y-86372205D01*
X182204187Y-86350000D01*
X182195460Y-86261392D01*
X182192005Y-86250000D01*
X188211928Y-86250000D01*
X188224188Y-86374482D01*
X188260498Y-86494180D01*
X188319463Y-86604494D01*
X188398815Y-86701185D01*
X188495506Y-86780537D01*
X188605820Y-86839502D01*
X188725518Y-86875812D01*
X188850000Y-86888072D01*
X189214250Y-86885000D01*
X189373000Y-86726250D01*
X189373000Y-86027000D01*
X189627000Y-86027000D01*
X189627000Y-86726250D01*
X189785750Y-86885000D01*
X190150000Y-86888072D01*
X190274482Y-86875812D01*
X190394180Y-86839502D01*
X190504494Y-86780537D01*
X190601185Y-86701185D01*
X190680537Y-86604494D01*
X190739502Y-86494180D01*
X190775812Y-86374482D01*
X190788072Y-86250000D01*
X190785000Y-86185750D01*
X190626250Y-86027000D01*
X189627000Y-86027000D01*
X189373000Y-86027000D01*
X188373750Y-86027000D01*
X188215000Y-86185750D01*
X188211928Y-86250000D01*
X182192005Y-86250000D01*
X182169614Y-86176190D01*
X182134402Y-86110313D01*
X182127643Y-86097667D01*
X182071159Y-86028841D01*
X182053906Y-86014682D01*
X181899317Y-85860093D01*
X181902000Y-85846603D01*
X181902000Y-85703397D01*
X181874062Y-85562942D01*
X181868702Y-85550000D01*
X188211928Y-85550000D01*
X188215000Y-85614250D01*
X188373750Y-85773000D01*
X189373000Y-85773000D01*
X189373000Y-85073750D01*
X189627000Y-85073750D01*
X189627000Y-85773000D01*
X190626250Y-85773000D01*
X190785000Y-85614250D01*
X190788072Y-85550000D01*
X190775812Y-85425518D01*
X190739502Y-85305820D01*
X190680537Y-85195506D01*
X190601185Y-85098815D01*
X190504494Y-85019463D01*
X190394180Y-84960498D01*
X190274482Y-84924188D01*
X190150000Y-84911928D01*
X189785750Y-84915000D01*
X189627000Y-85073750D01*
X189373000Y-85073750D01*
X189214250Y-84915000D01*
X188850000Y-84911928D01*
X188725518Y-84924188D01*
X188605820Y-84960498D01*
X188495506Y-85019463D01*
X188398815Y-85098815D01*
X188319463Y-85195506D01*
X188260498Y-85305820D01*
X188224188Y-85425518D01*
X188211928Y-85550000D01*
X181868702Y-85550000D01*
X181819259Y-85430636D01*
X181739698Y-85311564D01*
X181638436Y-85210302D01*
X181519364Y-85130741D01*
X181387058Y-85075938D01*
X181246603Y-85048000D01*
X181103397Y-85048000D01*
X180962942Y-85075938D01*
X180830636Y-85130741D01*
X180711564Y-85210302D01*
X180618045Y-85303821D01*
X180027000Y-84712777D01*
X180027000Y-81503397D01*
X180673000Y-81503397D01*
X180673000Y-81646603D01*
X180700938Y-81787058D01*
X180755741Y-81919364D01*
X180835302Y-82038436D01*
X180936564Y-82139698D01*
X180948001Y-82147340D01*
X180948000Y-82872102D01*
X180892450Y-82901794D01*
X180842657Y-82942657D01*
X180801794Y-82992450D01*
X180771430Y-83049257D01*
X180752732Y-83110897D01*
X180746418Y-83175000D01*
X180746418Y-84475000D01*
X180752732Y-84539103D01*
X180771430Y-84600743D01*
X180801794Y-84657550D01*
X180842657Y-84707343D01*
X180892450Y-84748206D01*
X180949257Y-84778570D01*
X181010897Y-84797268D01*
X181075000Y-84803582D01*
X181775000Y-84803582D01*
X181839103Y-84797268D01*
X181900743Y-84778570D01*
X181957550Y-84748206D01*
X182007343Y-84707343D01*
X182048206Y-84657550D01*
X182078570Y-84600743D01*
X182097268Y-84539103D01*
X182103582Y-84475000D01*
X182103582Y-83175000D01*
X182646418Y-83175000D01*
X182646418Y-84475000D01*
X182652732Y-84539103D01*
X182671430Y-84600743D01*
X182701794Y-84657550D01*
X182742657Y-84707343D01*
X182792450Y-84748206D01*
X182849257Y-84778570D01*
X182910897Y-84797268D01*
X182975000Y-84803582D01*
X183675000Y-84803582D01*
X183739103Y-84797268D01*
X183800743Y-84778570D01*
X183857550Y-84748206D01*
X183907343Y-84707343D01*
X183948206Y-84657550D01*
X183978570Y-84600743D01*
X183997268Y-84539103D01*
X184003582Y-84475000D01*
X184003582Y-84452000D01*
X184427795Y-84452000D01*
X184450000Y-84454187D01*
X184472205Y-84452000D01*
X184538607Y-84445460D01*
X184623810Y-84419614D01*
X184702333Y-84377643D01*
X184771159Y-84321159D01*
X184785323Y-84303900D01*
X185039907Y-84049317D01*
X185053397Y-84052000D01*
X185196603Y-84052000D01*
X185337058Y-84024062D01*
X185469364Y-83969259D01*
X185588436Y-83889698D01*
X185689698Y-83788436D01*
X185769259Y-83669364D01*
X185824062Y-83537058D01*
X185852000Y-83396603D01*
X185852000Y-83253397D01*
X185824062Y-83112942D01*
X185769259Y-82980636D01*
X185689698Y-82861564D01*
X185588436Y-82760302D01*
X185469364Y-82680741D01*
X185337058Y-82625938D01*
X185196603Y-82598000D01*
X185053397Y-82598000D01*
X184912942Y-82625938D01*
X184780636Y-82680741D01*
X184661564Y-82760302D01*
X184560302Y-82861564D01*
X184480741Y-82980636D01*
X184425938Y-83112942D01*
X184398000Y-83253397D01*
X184398000Y-83396603D01*
X184400683Y-83410093D01*
X184262777Y-83548000D01*
X184003582Y-83548000D01*
X184003582Y-83175000D01*
X183997268Y-83110897D01*
X183978570Y-83049257D01*
X183948206Y-82992450D01*
X183907343Y-82942657D01*
X183857550Y-82901794D01*
X183800743Y-82871430D01*
X183739103Y-82852732D01*
X183675000Y-82846418D01*
X182975000Y-82846418D01*
X182910897Y-82852732D01*
X182849257Y-82871430D01*
X182792450Y-82901794D01*
X182742657Y-82942657D01*
X182701794Y-82992450D01*
X182671430Y-83049257D01*
X182652732Y-83110897D01*
X182646418Y-83175000D01*
X182103582Y-83175000D01*
X182097268Y-83110897D01*
X182078570Y-83049257D01*
X182048206Y-82992450D01*
X182007343Y-82942657D01*
X181957550Y-82901794D01*
X181900743Y-82871430D01*
X181852000Y-82856644D01*
X181852000Y-82147339D01*
X181863436Y-82139698D01*
X181964698Y-82038436D01*
X182044259Y-81919364D01*
X182099062Y-81787058D01*
X182127000Y-81646603D01*
X182127000Y-81503397D01*
X182099062Y-81362942D01*
X182044259Y-81230636D01*
X181964698Y-81111564D01*
X181863436Y-81010302D01*
X181744364Y-80930741D01*
X181612058Y-80875938D01*
X181471603Y-80848000D01*
X181328397Y-80848000D01*
X181187942Y-80875938D01*
X181055636Y-80930741D01*
X180936564Y-81010302D01*
X180835302Y-81111564D01*
X180755741Y-81230636D01*
X180700938Y-81362942D01*
X180673000Y-81503397D01*
X180027000Y-81503397D01*
X180027000Y-78877000D01*
X180650529Y-78877000D01*
X180647625Y-78891546D01*
X180647615Y-78891644D01*
X180645918Y-78925000D01*
X180645918Y-79030759D01*
X180571380Y-79080164D01*
X180571304Y-79080226D01*
X180480226Y-79171304D01*
X180480164Y-79171380D01*
X180410506Y-79276474D01*
X180410460Y-79276561D01*
X180363557Y-79390858D01*
X180363529Y-79390951D01*
X180339734Y-79510129D01*
X180339724Y-79510227D01*
X180336428Y-79575000D01*
X180336428Y-79925000D01*
X180339724Y-79989773D01*
X180339734Y-79989871D01*
X180363529Y-80109049D01*
X180363557Y-80109142D01*
X180410460Y-80223439D01*
X180410506Y-80223526D01*
X180480164Y-80328620D01*
X180480226Y-80328696D01*
X180571304Y-80419774D01*
X180571380Y-80419836D01*
X180676474Y-80489494D01*
X180676561Y-80489540D01*
X180790858Y-80536443D01*
X180790951Y-80536471D01*
X180910129Y-80560266D01*
X180910227Y-80560276D01*
X180975000Y-80563572D01*
X182000000Y-80563572D01*
X182064773Y-80560276D01*
X182064871Y-80560266D01*
X182091918Y-80554866D01*
X182141620Y-80549971D01*
X182175267Y-80543279D01*
X182294994Y-80506961D01*
X182326688Y-80493832D01*
X182436978Y-80434880D01*
X182465503Y-80415821D01*
X182562204Y-80336462D01*
X182586462Y-80312204D01*
X182634795Y-80253308D01*
X182650000Y-80254082D01*
X183675000Y-80254082D01*
X183708356Y-80252385D01*
X183708454Y-80252375D01*
X183769826Y-80240121D01*
X183769919Y-80240093D01*
X183828777Y-80215940D01*
X183828864Y-80215894D01*
X183849826Y-80202000D01*
X185027838Y-80202000D01*
X185055741Y-80269364D01*
X185135302Y-80388436D01*
X185236564Y-80489698D01*
X185355636Y-80569259D01*
X185487942Y-80624062D01*
X185628397Y-80652000D01*
X185771603Y-80652000D01*
X185912058Y-80624062D01*
X186044364Y-80569259D01*
X186163436Y-80489698D01*
X186264698Y-80388436D01*
X186344259Y-80269364D01*
X186399062Y-80137058D01*
X186427000Y-79996603D01*
X186427000Y-79853397D01*
X186399062Y-79712942D01*
X186344259Y-79580636D01*
X186264698Y-79461564D01*
X186163436Y-79360302D01*
X186044364Y-79280741D01*
X185912058Y-79225938D01*
X185771603Y-79198000D01*
X185628397Y-79198000D01*
X185487942Y-79225938D01*
X185355636Y-79280741D01*
X185329806Y-79298000D01*
X184441223Y-79298000D01*
X184962224Y-78777000D01*
X185402661Y-78777000D01*
X185410302Y-78788436D01*
X185511564Y-78889698D01*
X185630636Y-78969259D01*
X185762942Y-79024062D01*
X185903397Y-79052000D01*
X186046603Y-79052000D01*
X186187058Y-79024062D01*
X186319364Y-78969259D01*
X186438436Y-78889698D01*
X186539698Y-78788436D01*
X186619259Y-78669364D01*
X186674062Y-78537058D01*
X186702000Y-78396603D01*
X186702000Y-78253397D01*
X186674062Y-78112942D01*
X186619259Y-77980636D01*
X186539698Y-77861564D01*
X186438436Y-77760302D01*
X186319364Y-77680741D01*
X186187058Y-77625938D01*
X186046603Y-77598000D01*
X185903397Y-77598000D01*
X185762942Y-77625938D01*
X185630636Y-77680741D01*
X185511564Y-77760302D01*
X185410302Y-77861564D01*
X185402661Y-77873000D01*
X184797205Y-77873000D01*
X184775000Y-77870813D01*
X184686392Y-77879540D01*
X184601190Y-77905386D01*
X184522667Y-77947357D01*
X184453841Y-78003841D01*
X184439681Y-78021095D01*
X184004082Y-78456695D01*
X184004082Y-78275000D01*
X184002385Y-78241644D01*
X184002375Y-78241546D01*
X183990121Y-78180174D01*
X183990093Y-78180081D01*
X183965940Y-78121223D01*
X183965894Y-78121136D01*
X183930023Y-78067017D01*
X183929961Y-78066941D01*
X183883059Y-78020039D01*
X183882983Y-78019977D01*
X183828864Y-77984106D01*
X183828777Y-77984060D01*
X183769919Y-77959907D01*
X183769826Y-77959879D01*
X183708454Y-77947625D01*
X183708356Y-77947615D01*
X183675000Y-77945918D01*
X182650000Y-77945918D01*
X182616644Y-77947615D01*
X182616546Y-77947625D01*
X182604279Y-77950074D01*
X182568751Y-77953573D01*
X182535104Y-77960265D01*
X182473450Y-77978968D01*
X182441756Y-77992097D01*
X182384961Y-78022455D01*
X182383729Y-78023278D01*
X182357550Y-78001794D01*
X182300743Y-77971430D01*
X182239103Y-77952732D01*
X182175000Y-77946418D01*
X180975000Y-77946418D01*
X180910897Y-77952732D01*
X180849257Y-77971430D01*
X180846320Y-77973000D01*
X179697204Y-77973000D01*
X179674999Y-77970813D01*
X179586392Y-77979540D01*
X179571341Y-77984106D01*
X179501190Y-78005386D01*
X179422667Y-78047357D01*
X179353841Y-78103841D01*
X179339680Y-78121096D01*
X179271095Y-78189682D01*
X179253842Y-78203841D01*
X179197358Y-78272667D01*
X179155386Y-78351191D01*
X179129540Y-78436393D01*
X179120813Y-78525000D01*
X178402000Y-78525000D01*
X178402000Y-76377000D01*
X191798001Y-76377000D01*
X191798001Y-82266580D01*
%TD*%
M02*
