%TF.GenerationSoftware,KiCad,Pcbnew,(5.1.6)-1*%
%TF.CreationDate,2021-03-06T11:00:20-06:00*%
%TF.ProjectId,tsl2591_smaller,74736c32-3539-4315-9f73-6d616c6c6572,rev?*%
%TF.SameCoordinates,Original*%
%TF.FileFunction,Paste,Top*%
%TF.FilePolarity,Positive*%
%FSLAX46Y46*%
G04 Gerber Fmt 4.6, Leading zero omitted, Abs format (unit mm)*
G04 Created by KiCad (PCBNEW (5.1.6)-1) date 2021-03-06 11:00:20*
%MOMM*%
%LPD*%
G01*
G04 APERTURE LIST*
%ADD10C,0.100000*%
%ADD11R,0.700000X1.300000*%
%ADD12R,1.300000X0.700000*%
G04 APERTURE END LIST*
D10*
%TO.C,U1*%
G36*
X182175000Y-78625000D02*
G01*
X180975000Y-78625000D01*
X180975000Y-78275000D01*
X182175000Y-78275000D01*
X182175000Y-78625000D01*
G37*
G36*
X182000098Y-79574510D02*
G01*
X182000191Y-79574538D01*
X182000278Y-79574584D01*
X182000354Y-79574646D01*
X182000416Y-79574722D01*
X182000462Y-79574809D01*
X182000490Y-79574902D01*
X182000500Y-79575000D01*
X182000500Y-79575211D01*
X182008587Y-79575211D01*
X182025678Y-79576894D01*
X182042522Y-79580245D01*
X182058956Y-79585230D01*
X182074822Y-79591802D01*
X182089968Y-79599897D01*
X182104247Y-79609439D01*
X182117523Y-79620334D01*
X182129666Y-79632477D01*
X182140561Y-79645753D01*
X182150103Y-79660032D01*
X182158198Y-79675178D01*
X182164770Y-79691044D01*
X182169755Y-79707478D01*
X182173106Y-79724322D01*
X182174789Y-79741413D01*
X182174789Y-79758587D01*
X182173106Y-79775678D01*
X182169755Y-79792522D01*
X182164770Y-79808956D01*
X182158198Y-79824822D01*
X182150103Y-79839968D01*
X182140561Y-79854247D01*
X182129666Y-79867523D01*
X182117523Y-79879666D01*
X182104247Y-79890561D01*
X182089968Y-79900103D01*
X182074822Y-79908198D01*
X182058956Y-79914770D01*
X182042522Y-79919755D01*
X182025678Y-79923106D01*
X182008587Y-79924789D01*
X182000500Y-79924789D01*
X182000500Y-79925000D01*
X182000490Y-79925098D01*
X182000462Y-79925191D01*
X182000416Y-79925278D01*
X182000354Y-79925354D01*
X182000278Y-79925416D01*
X182000191Y-79925462D01*
X182000098Y-79925490D01*
X182000000Y-79925500D01*
X180975000Y-79925500D01*
X180974902Y-79925490D01*
X180974809Y-79925462D01*
X180974722Y-79925416D01*
X180974646Y-79925354D01*
X180974584Y-79925278D01*
X180974538Y-79925191D01*
X180974510Y-79925098D01*
X180974500Y-79925000D01*
X180974500Y-79575000D01*
X180974510Y-79574902D01*
X180974538Y-79574809D01*
X180974584Y-79574722D01*
X180974646Y-79574646D01*
X180974722Y-79574584D01*
X180974809Y-79574538D01*
X180974902Y-79574510D01*
X180975000Y-79574500D01*
X182000000Y-79574500D01*
X182000098Y-79574510D01*
G37*
G36*
X182649902Y-79925490D02*
G01*
X182649809Y-79925462D01*
X182649722Y-79925416D01*
X182649646Y-79925354D01*
X182649584Y-79925278D01*
X182649538Y-79925191D01*
X182649510Y-79925098D01*
X182649500Y-79925000D01*
X182649500Y-79924789D01*
X182641413Y-79924789D01*
X182624322Y-79923106D01*
X182607478Y-79919755D01*
X182591044Y-79914770D01*
X182575178Y-79908198D01*
X182560032Y-79900103D01*
X182545753Y-79890561D01*
X182532477Y-79879666D01*
X182520334Y-79867523D01*
X182509439Y-79854247D01*
X182499897Y-79839968D01*
X182491802Y-79824822D01*
X182485230Y-79808956D01*
X182480245Y-79792522D01*
X182476894Y-79775678D01*
X182475211Y-79758587D01*
X182475211Y-79741413D01*
X182476894Y-79724322D01*
X182480245Y-79707478D01*
X182485230Y-79691044D01*
X182491802Y-79675178D01*
X182499897Y-79660032D01*
X182509439Y-79645753D01*
X182520334Y-79632477D01*
X182532477Y-79620334D01*
X182545753Y-79609439D01*
X182560032Y-79599897D01*
X182575178Y-79591802D01*
X182591044Y-79585230D01*
X182607478Y-79580245D01*
X182624322Y-79576894D01*
X182641413Y-79575211D01*
X182649500Y-79575211D01*
X182649500Y-79575000D01*
X182649510Y-79574902D01*
X182649538Y-79574809D01*
X182649584Y-79574722D01*
X182649646Y-79574646D01*
X182649722Y-79574584D01*
X182649809Y-79574538D01*
X182649902Y-79574510D01*
X182650000Y-79574500D01*
X183675000Y-79574500D01*
X183675098Y-79574510D01*
X183675191Y-79574538D01*
X183675278Y-79574584D01*
X183675354Y-79574646D01*
X183675416Y-79574722D01*
X183675462Y-79574809D01*
X183675490Y-79574902D01*
X183675500Y-79575000D01*
X183675500Y-79925000D01*
X183675490Y-79925098D01*
X183675462Y-79925191D01*
X183675416Y-79925278D01*
X183675354Y-79925354D01*
X183675278Y-79925416D01*
X183675191Y-79925462D01*
X183675098Y-79925490D01*
X183675000Y-79925500D01*
X182650000Y-79925500D01*
X182649902Y-79925490D01*
G37*
G36*
X182649902Y-78625490D02*
G01*
X182649809Y-78625462D01*
X182649722Y-78625416D01*
X182649646Y-78625354D01*
X182649584Y-78625278D01*
X182649538Y-78625191D01*
X182649510Y-78625098D01*
X182649500Y-78625000D01*
X182649500Y-78624789D01*
X182641413Y-78624789D01*
X182624322Y-78623106D01*
X182607478Y-78619755D01*
X182591044Y-78614770D01*
X182575178Y-78608198D01*
X182560032Y-78600103D01*
X182545753Y-78590561D01*
X182532477Y-78579666D01*
X182520334Y-78567523D01*
X182509439Y-78554247D01*
X182499897Y-78539968D01*
X182491802Y-78524822D01*
X182485230Y-78508956D01*
X182480245Y-78492522D01*
X182476894Y-78475678D01*
X182475211Y-78458587D01*
X182475211Y-78441413D01*
X182476894Y-78424322D01*
X182480245Y-78407478D01*
X182485230Y-78391044D01*
X182491802Y-78375178D01*
X182499897Y-78360032D01*
X182509439Y-78345753D01*
X182520334Y-78332477D01*
X182532477Y-78320334D01*
X182545753Y-78309439D01*
X182560032Y-78299897D01*
X182575178Y-78291802D01*
X182591044Y-78285230D01*
X182607478Y-78280245D01*
X182624322Y-78276894D01*
X182641413Y-78275211D01*
X182649500Y-78275211D01*
X182649500Y-78275000D01*
X182649510Y-78274902D01*
X182649538Y-78274809D01*
X182649584Y-78274722D01*
X182649646Y-78274646D01*
X182649722Y-78274584D01*
X182649809Y-78274538D01*
X182649902Y-78274510D01*
X182650000Y-78274500D01*
X183675000Y-78274500D01*
X183675098Y-78274510D01*
X183675191Y-78274538D01*
X183675278Y-78274584D01*
X183675354Y-78274646D01*
X183675416Y-78274722D01*
X183675462Y-78274809D01*
X183675490Y-78274902D01*
X183675500Y-78275000D01*
X183675500Y-78625000D01*
X183675490Y-78625098D01*
X183675462Y-78625191D01*
X183675416Y-78625278D01*
X183675354Y-78625354D01*
X183675278Y-78625416D01*
X183675191Y-78625462D01*
X183675098Y-78625490D01*
X183675000Y-78625500D01*
X182650000Y-78625500D01*
X182649902Y-78625490D01*
G37*
G36*
X182649902Y-79275490D02*
G01*
X182649809Y-79275462D01*
X182649722Y-79275416D01*
X182649646Y-79275354D01*
X182649584Y-79275278D01*
X182649538Y-79275191D01*
X182649510Y-79275098D01*
X182649500Y-79275000D01*
X182649500Y-79274789D01*
X182641413Y-79274789D01*
X182624322Y-79273106D01*
X182607478Y-79269755D01*
X182591044Y-79264770D01*
X182575178Y-79258198D01*
X182560032Y-79250103D01*
X182545753Y-79240561D01*
X182532477Y-79229666D01*
X182520334Y-79217523D01*
X182509439Y-79204247D01*
X182499897Y-79189968D01*
X182491802Y-79174822D01*
X182485230Y-79158956D01*
X182480245Y-79142522D01*
X182476894Y-79125678D01*
X182475211Y-79108587D01*
X182475211Y-79091413D01*
X182476894Y-79074322D01*
X182480245Y-79057478D01*
X182485230Y-79041044D01*
X182491802Y-79025178D01*
X182499897Y-79010032D01*
X182509439Y-78995753D01*
X182520334Y-78982477D01*
X182532477Y-78970334D01*
X182545753Y-78959439D01*
X182560032Y-78949897D01*
X182575178Y-78941802D01*
X182591044Y-78935230D01*
X182607478Y-78930245D01*
X182624322Y-78926894D01*
X182641413Y-78925211D01*
X182649500Y-78925211D01*
X182649500Y-78925000D01*
X182649510Y-78924902D01*
X182649538Y-78924809D01*
X182649584Y-78924722D01*
X182649646Y-78924646D01*
X182649722Y-78924584D01*
X182649809Y-78924538D01*
X182649902Y-78924510D01*
X182650000Y-78924500D01*
X183675000Y-78924500D01*
X183675098Y-78924510D01*
X183675191Y-78924538D01*
X183675278Y-78924584D01*
X183675354Y-78924646D01*
X183675416Y-78924722D01*
X183675462Y-78924809D01*
X183675490Y-78924902D01*
X183675500Y-78925000D01*
X183675500Y-79275000D01*
X183675490Y-79275098D01*
X183675462Y-79275191D01*
X183675416Y-79275278D01*
X183675354Y-79275354D01*
X183675278Y-79275416D01*
X183675191Y-79275462D01*
X183675098Y-79275490D01*
X183675000Y-79275500D01*
X182650000Y-79275500D01*
X182649902Y-79275490D01*
G37*
G36*
X182000098Y-78924510D02*
G01*
X182000191Y-78924538D01*
X182000278Y-78924584D01*
X182000354Y-78924646D01*
X182000416Y-78924722D01*
X182000462Y-78924809D01*
X182000490Y-78924902D01*
X182000500Y-78925000D01*
X182000500Y-78925211D01*
X182008587Y-78925211D01*
X182025678Y-78926894D01*
X182042522Y-78930245D01*
X182058956Y-78935230D01*
X182074822Y-78941802D01*
X182089968Y-78949897D01*
X182104247Y-78959439D01*
X182117523Y-78970334D01*
X182129666Y-78982477D01*
X182140561Y-78995753D01*
X182150103Y-79010032D01*
X182158198Y-79025178D01*
X182164770Y-79041044D01*
X182169755Y-79057478D01*
X182173106Y-79074322D01*
X182174789Y-79091413D01*
X182174789Y-79108587D01*
X182173106Y-79125678D01*
X182169755Y-79142522D01*
X182164770Y-79158956D01*
X182158198Y-79174822D01*
X182150103Y-79189968D01*
X182140561Y-79204247D01*
X182129666Y-79217523D01*
X182117523Y-79229666D01*
X182104247Y-79240561D01*
X182089968Y-79250103D01*
X182074822Y-79258198D01*
X182058956Y-79264770D01*
X182042522Y-79269755D01*
X182025678Y-79273106D01*
X182008587Y-79274789D01*
X182000500Y-79274789D01*
X182000500Y-79275000D01*
X182000490Y-79275098D01*
X182000462Y-79275191D01*
X182000416Y-79275278D01*
X182000354Y-79275354D01*
X182000278Y-79275416D01*
X182000191Y-79275462D01*
X182000098Y-79275490D01*
X182000000Y-79275500D01*
X180975000Y-79275500D01*
X180974902Y-79275490D01*
X180974809Y-79275462D01*
X180974722Y-79275416D01*
X180974646Y-79275354D01*
X180974584Y-79275278D01*
X180974538Y-79275191D01*
X180974510Y-79275098D01*
X180974500Y-79275000D01*
X180974500Y-78925000D01*
X180974510Y-78924902D01*
X180974538Y-78924809D01*
X180974584Y-78924722D01*
X180974646Y-78924646D01*
X180974722Y-78924584D01*
X180974809Y-78924538D01*
X180974902Y-78924510D01*
X180975000Y-78924500D01*
X182000000Y-78924500D01*
X182000098Y-78924510D01*
G37*
%TD*%
D11*
%TO.C,R2*%
X183325000Y-83825000D03*
X181425000Y-83825000D03*
%TD*%
%TO.C,R1*%
X183650000Y-87700000D03*
X181750000Y-87700000D03*
%TD*%
D12*
%TO.C,C1*%
X189500000Y-85900000D03*
X189500000Y-84000000D03*
%TD*%
M02*
